<svg xmlns="http://www.w3.org/2000/svg" viewBox="0 0 32 32">
  <rect width="32" height="32" rx="7" fill="#142b1b"/>
  <g fill="#6fc37a">
    <g transform="translate(16,15) rotate(45)">
      <path d="M0,0 C-2,-4.4 -8.6,-4.4 -8.6,1.8 C-8.6,6.6 -3.6,9.6 0,12.6 C3.6,9.6 8.6,6.6 8.6,1.8 C8.6,-4.4 2,-4.4 0,0 Z" transform="rotate(0) translate(0,-12.6)"/>
      <path d="M0,0 C-2,-4.4 -8.6,-4.4 -8.6,1.8 C-8.6,6.6 -3.6,9.6 0,12.6 C3.6,9.6 8.6,6.6 8.6,1.8 C8.6,-4.4 2,-4.4 0,0 Z" transform="rotate(90) translate(0,-12.6)"/>
      <path d="M0,0 C-2,-4.4 -8.6,-4.4 -8.6,1.8 C-8.6,6.6 -3.6,9.6 0,12.6 C3.6,9.6 8.6,6.6 8.6,1.8 C8.6,-4.4 2,-4.4 0,0 Z" transform="rotate(180) translate(0,-12.6)"/>
      <path d="M0,0 C-2,-4.4 -8.6,-4.4 -8.6,1.8 C-8.6,6.6 -3.6,9.6 0,12.6 C3.6,9.6 8.6,6.6 8.6,1.8 C8.6,-4.4 2,-4.4 0,0 Z" transform="rotate(270) translate(0,-12.6)"/>
    </g>
    <rect x="15" y="15" width="2" height="14" rx="1"/>
  </g>
</svg>
